<svg width="191" height="122" class="railroad-diagram" viewBox="0 0 191 122">
    <g transform="translate(.5 .5)">
        <g>
            <path d="M20 21v20m10 -20v20m-10 -10h20"/>
        </g>
        <g>
            <path d="M40 31h0"/>
            <path d="M151 31h0"/>
            <path d="M40 31h20"/>
            <g class="non-terminal">
                <path d="M60 31h0"/>
                <path d="M131 31h0"/>
                <rect width="71" height="22" x="60" y="20"/>
                <text x="95.5" y="35">
                    letter
                </text>
            </g>
            <path d="M131 31h20"/>
            <path d="M40 31a10 10 0 0 1 10 10v10a10 10 0 0 0 10 10"/>
            <g class="non-terminal">
                <path d="M60 61h4.25"/>
                <path d="M126.75 61h4.25"/>
                <rect width="62.5" height="22" x="64.25" y="50"/>
                <text x="95.5" y="65">
                    digit
                </text>
            </g>
            <path d="M131 61a10 10 0 0 0 10 -10v-10a10 10 0 0 1 10 -10"/>
            <path d="M40 31a10 10 0 0 1 10 10v40a10 10 0 0 0 10 10"/>
            <g class="terminal">
                <path d="M60 91h21.25"/>
                <path d="M109.75 91h21.25"/>
                <rect width="28.5" height="22" x="81.25" y="80" rx="10" ry="10"/>
                <text x="95.5" y="95">
                    _
                </text>
            </g>
            <path d="M131 91a10 10 0 0 0 10 -10v-40a10 10 0 0 1 10 -10"/>
        </g>
        <path d="M 151 31 h 20 m -10 -10 v 20 m 10 -20 v 20"/>
    </g>
</svg>