<svg width="663" height="149" class="railroad-diagram" viewBox="0 0 663 149">
    <g transform="translate(.5 .5)">
        <g>
            <path d="M20 60v20m10 -20v20m-10 -10h20"/>
        </g>
        <g>
            <path d="M40 70h0"/>
            <path d="M313.5 70h0"/>
            <path d="M40 70a10 10 0 0 0 10 -10v-19a10 10 0 0 1 10 -10"/>
            <g>
                <path d="M60 31h75.5"/>
                <path d="M218 31h75.5"/>
                <path d="M135.5 31h10"/>
                <g class="non-terminal">
                    <path d="M145.5 31h0"/>
                    <path d="M208 31h0"/>
                    <rect width="62.5" height="22" x="145.5" y="20"/>
                    <text x="176.75" y="35">
                        digit
                    </text>
                </g>
                <path d="M208 31h10"/>
                <path d="M145.5 31a10 10 0 0 0 -10 10v0a10 10 0 0 0 10 10"/>
                <g>
                    <path d="M145.5 51h62.5"/>
                </g>
                <path d="M208 51a10 10 0 0 0 10 -10v0a10 10 0 0 0 -10 -10"/>
            </g>
            <path d="M293.5 31a10 10 0 0 1 10 10v19a10 10 0 0 0 10 10"/>
            <path d="M40 70h20"/>
            <g>
                <path d="M60 70h0"/>
                <path d="M293.5 70h0"/>
                <g>
                    <path d="M60 70h0"/>
                    <path d="M142.5 70h0"/>
                    <path d="M60 70h10"/>
                    <g class="non-terminal">
                        <path d="M70 70h0"/>
                        <path d="M132.5 70h0"/>
                        <rect width="62.5" height="22" x="70" y="59"/>
                        <text x="101.25" y="74">
                            digit
                        </text>
                    </g>
                    <path d="M132.5 70h10"/>
                    <path d="M70 70a10 10 0 0 0 -10 10v0a10 10 0 0 0 10 10"/>
                    <g>
                        <path d="M70 90h62.5"/>
                    </g>
                    <path d="M132.5 90a10 10 0 0 0 10 -10v0a10 10 0 0 0 -10 -10"/>
                </g>
                <path d="M142.5 70h10"/>
                <path d="M152.5 70h10"/>
                <g class="terminal">
                    <path d="M162.5 70h0"/>
                    <path d="M191 70h0"/>
                    <rect width="28.5" height="22" x="162.5" y="59" rx="10" ry="10"/>
                    <text x="176.75" y="74">
                        .
                    </text>
                </g>
                <path d="M191 70h10"/>
                <path d="M201 70h10"/>
                <g>
                    <path d="M211 70h0"/>
                    <path d="M293.5 70h0"/>
                    <path d="M211 70h10"/>
                    <g class="non-terminal">
                        <path d="M221 70h0"/>
                        <path d="M283.5 70h0"/>
                        <rect width="62.5" height="22" x="221" y="59"/>
                        <text x="252.25" y="74">
                            digit
                        </text>
                    </g>
                    <path d="M283.5 70h10"/>
                    <path d="M221 70a10 10 0 0 0 -10 10v0a10 10 0 0 0 10 10"/>
                    <g>
                        <path d="M221 90h62.5"/>
                    </g>
                    <path d="M283.5 90a10 10 0 0 0 10 -10v0a10 10 0 0 0 -10 -10"/>
                </g>
            </g>
            <path d="M293.5 70h20"/>
            <path d="M40 70a10 10 0 0 1 10 10v19a10 10 0 0 0 10 10"/>
            <g>
                <path d="M60 109h51.25"/>
                <path d="M242.25 109h51.25"/>
                <g class="terminal">
                    <path d="M111.25 109h0"/>
                    <path d="M139.75 109h0"/>
                    <rect width="28.5" height="22" x="111.25" y="98" rx="10" ry="10"/>
                    <text x="125.5" y="113">
                        .
                    </text>
                </g>
                <path d="M139.75 109h10"/>
                <path d="M149.75 109h10"/>
                <g>
                    <path d="M159.75 109h0"/>
                    <path d="M242.25 109h0"/>
                    <path d="M159.75 109h10"/>
                    <g class="non-terminal">
                        <path d="M169.75 109h0"/>
                        <path d="M232.25 109h0"/>
                        <rect width="62.5" height="22" x="169.75" y="98"/>
                        <text x="201" y="113">
                            digit
                        </text>
                    </g>
                    <path d="M232.25 109h10"/>
                    <path d="M169.75 109a10 10 0 0 0 -10 10v0a10 10 0 0 0 10 10"/>
                    <g>
                        <path d="M169.75 129h62.5"/>
                    </g>
                    <path d="M232.25 129a10 10 0 0 0 10 -10v0a10 10 0 0 0 -10 -10"/>
                </g>
            </g>
            <path d="M293.5 109a10 10 0 0 0 10 -10v-19a10 10 0 0 1 10 -10"/>
        </g>
        <g>
            <path d="M313.5 70h0"/>
            <path d="M623 70h0"/>
            <path d="M313.5 70a10 10 0 0 0 10 -10v-8a10 10 0 0 1 10 -10"/>
            <g>
                <path d="M333.5 42h269.5"/>
            </g>
            <path d="M603 42a10 10 0 0 1 10 10v8a10 10 0 0 0 10 10"/>
            <path d="M313.5 70h20"/>
            <g>
                <path d="M333.5 70h0"/>
                <path d="M603 70h0"/>
                <g>
                    <path d="M333.5 70h0"/>
                    <path d="M402 70h0"/>
                    <path d="M333.5 70h20"/>
                    <g class="terminal">
                        <path d="M353.5 70h0"/>
                        <path d="M382 70h0"/>
                        <rect width="28.5" height="22" x="353.5" y="59" rx="10" ry="10"/>
                        <text x="367.75" y="74">
                            E
                        </text>
                    </g>
                    <path d="M382 70h20"/>
                    <path d="M333.5 70a10 10 0 0 1 10 10v10a10 10 0 0 0 10 10"/>
                    <g class="non-terminal">
                        <path d="M353.5 100h0"/>
                        <path d="M382 100h0"/>
                        <rect width="28.5" height="22" x="353.5" y="89"/>
                        <text x="367.75" y="104">
                            e
                        </text>
                    </g>
                    <path d="M382 100a10 10 0 0 0 10 -10v-10a10 10 0 0 1 10 -10"/>
                </g>
                <g>
                    <path d="M402 70h0"/>
                    <path d="M510.5 70h0"/>
                    <path d="M402 70a10 10 0 0 0 10 -10v0a10 10 0 0 1 10 -10"/>
                    <g>
                        <path d="M422 50h68.5"/>
                    </g>
                    <path d="M490.5 50a10 10 0 0 1 10 10v0a10 10 0 0 0 10 10"/>
                    <path d="M402 70h20"/>
                    <g>
                        <path d="M422 70h0"/>
                        <path d="M490.5 70h0"/>
                        <path d="M422 70h20"/>
                        <g class="terminal">
                            <path d="M442 70h0"/>
                            <path d="M470.5 70h0"/>
                            <rect width="28.5" height="22" x="442" y="59" rx="10" ry="10"/>
                            <text x="456.25" y="74">
                                +
                            </text>
                        </g>
                        <path d="M470.5 70h20"/>
                        <path d="M422 70a10 10 0 0 1 10 10v10a10 10 0 0 0 10 10"/>
                        <g class="terminal">
                            <path d="M442 100h0"/>
                            <path d="M470.5 100h0"/>
                            <rect width="28.5" height="22" x="442" y="89" rx="10" ry="10"/>
                            <text x="456.25" y="104">
                                -
                            </text>
                        </g>
                        <path d="M470.5 100a10 10 0 0 0 10 -10v-10a10 10 0 0 1 10 -10"/>
                    </g>
                    <path d="M490.5 70h20"/>
                </g>
                <path d="M510.5 70h10"/>
                <g>
                    <path d="M520.5 70h0"/>
                    <path d="M603 70h0"/>
                    <path d="M520.5 70h10"/>
                    <g class="non-terminal">
                        <path d="M530.5 70h0"/>
                        <path d="M593 70h0"/>
                        <rect width="62.5" height="22" x="530.5" y="59"/>
                        <text x="561.75" y="74">
                            digit
                        </text>
                    </g>
                    <path d="M593 70h10"/>
                    <path d="M530.5 70a10 10 0 0 0 -10 10v0a10 10 0 0 0 10 10"/>
                    <g>
                        <path d="M530.5 90h62.5"/>
                    </g>
                    <path d="M593 90a10 10 0 0 0 10 -10v0a10 10 0 0 0 -10 -10"/>
                </g>
            </g>
            <path d="M603 70h20"/>
        </g>
        <path d="M 623 70 h 20 m -10 -10 v 20 m 10 -20 v 20"/>
    </g>
</svg>