<svg width="653" height="158" class="railroad-diagram" viewBox="0 0 653 158">
    <g transform="translate(.5 .5)">
        <g>
            <path d="M20 69v20m10 -20v20m-10 -10h20"/>
        </g>
        <g>
            <path d="M40 79h0"/>
            <path d="M108.5 79h0"/>
            <path d="M40 79a10 10 0 0 0 10 -10v0a10 10 0 0 1 10 -10"/>
            <g class="terminal">
                <path d="M60 59h0"/>
                <path d="M88.5 59h0"/>
                <rect width="28.5" height="22" x="60" y="48" rx="10" ry="10"/>
                <text x="74.25" y="63">
                    +
                </text>
            </g>
            <path d="M88.5 59a10 10 0 0 1 10 10v0a10 10 0 0 0 10 10"/>
            <path d="M40 79h20"/>
            <g>
                <path d="M60 79h28.5"/>
            </g>
            <path d="M88.5 79h20"/>
            <path d="M40 79a10 10 0 0 1 10 10v0a10 10 0 0 0 10 10"/>
            <g class="terminal">
                <path d="M60 99h0"/>
                <path d="M88.5 99h0"/>
                <rect width="28.5" height="22" x="60" y="88" rx="10" ry="10"/>
                <text x="74.25" y="103">
                    -
                </text>
            </g>
            <path d="M88.5 99a10 10 0 0 0 10 -10v0a10 10 0 0 1 10 -10"/>
        </g>
        <g>
            <path d="M108.5 79h0"/>
            <path d="M412 79h0"/>
            <path d="M108.5 79a10 10 0 0 0 10 -10v-28a10 10 0 0 1 10 -10"/>
            <g>
                <path d="M128.5 31h90.5"/>
                <path d="M301.5 31h90.5"/>
                <path d="M219 31h10"/>
                <g class="non-terminal">
                    <path d="M229 31h0"/>
                    <path d="M291.5 31h0"/>
                    <rect width="62.5" height="22" x="229" y="20"/>
                    <text x="260.25" y="35">
                        digit
                    </text>
                </g>
                <path d="M291.5 31h10"/>
                <path d="M229 31a10 10 0 0 0 -10 10v0a10 10 0 0 0 10 10"/>
                <g>
                    <path d="M229 51h62.5"/>
                </g>
                <path d="M291.5 51a10 10 0 0 0 10 -10v0a10 10 0 0 0 -10 -10"/>
            </g>
            <path d="M392 31a10 10 0 0 1 10 10v28a10 10 0 0 0 10 10"/>
            <path d="M108.5 79h20"/>
            <g>
                <path d="M128.5 79h0"/>
                <path d="M392 79h0"/>
                <g>
                    <path d="M128.5 79h0"/>
                    <path d="M211 79h0"/>
                    <path d="M128.5 79h10"/>
                    <g class="non-terminal">
                        <path d="M138.5 79h0"/>
                        <path d="M201 79h0"/>
                        <rect width="62.5" height="22" x="138.5" y="68"/>
                        <text x="169.75" y="83">
                            digit
                        </text>
                    </g>
                    <path d="M201 79h10"/>
                    <path d="M138.5 79a10 10 0 0 0 -10 10v0a10 10 0 0 0 10 10"/>
                    <g>
                        <path d="M138.5 99h62.5"/>
                    </g>
                    <path d="M201 99a10 10 0 0 0 10 -10v0a10 10 0 0 0 -10 -10"/>
                </g>
                <path d="M211 79h10"/>
                <g>
                    <path d="M221 79h0"/>
                    <path d="M392 79h0"/>
                    <path d="M221 79a10 10 0 0 0 10 -10v0a10 10 0 0 1 10 -10"/>
                    <g>
                        <path d="M241 59h131"/>
                    </g>
                    <path d="M372 59a10 10 0 0 1 10 10v0a10 10 0 0 0 10 10"/>
                    <path d="M221 79h20"/>
                    <g>
                        <path d="M241 79h0"/>
                        <path d="M372 79h0"/>
                        <g class="terminal">
                            <path d="M241 79h0"/>
                            <path d="M269.5 79h0"/>
                            <rect width="28.5" height="22" x="241" y="68" rx="10" ry="10"/>
                            <text x="255.25" y="83">
                                .
                            </text>
                        </g>
                        <path d="M269.5 79h10"/>
                        <path d="M279.5 79h10"/>
                        <g>
                            <path d="M289.5 79h0"/>
                            <path d="M372 79h0"/>
                            <path d="M289.5 79h10"/>
                            <g class="non-terminal">
                                <path d="M299.5 79h0"/>
                                <path d="M362 79h0"/>
                                <rect width="62.5" height="22" x="299.5" y="68"/>
                                <text x="330.75" y="83">
                                    digit
                                </text>
                            </g>
                            <path d="M362 79h10"/>
                            <path d="M299.5 79a10 10 0 0 0 -10 10v0a10 10 0 0 0 10 10"/>
                            <g>
                                <path d="M299.5 99h62.5"/>
                            </g>
                            <path d="M362 99a10 10 0 0 0 10 -10v0a10 10 0 0 0 -10 -10"/>
                        </g>
                    </g>
                    <path d="M372 79h20"/>
                </g>
            </g>
            <path d="M392 79h20"/>
            <path d="M108.5 79a10 10 0 0 1 10 10v19a10 10 0 0 0 10 10"/>
            <g>
                <path d="M128.5 118h66.25"/>
                <path d="M325.75 118h66.25"/>
                <g class="terminal">
                    <path d="M194.75 118h0"/>
                    <path d="M223.25 118h0"/>
                    <rect width="28.5" height="22" x="194.75" y="107" rx="10" ry="10"/>
                    <text x="209" y="122">
                        .
                    </text>
                </g>
                <path d="M223.25 118h10"/>
                <path d="M233.25 118h10"/>
                <g>
                    <path d="M243.25 118h0"/>
                    <path d="M325.75 118h0"/>
                    <path d="M243.25 118h10"/>
                    <g class="non-terminal">
                        <path d="M253.25 118h0"/>
                        <path d="M315.75 118h0"/>
                        <rect width="62.5" height="22" x="253.25" y="107"/>
                        <text x="284.5" y="122">
                            digit
                        </text>
                    </g>
                    <path d="M315.75 118h10"/>
                    <path d="M253.25 118a10 10 0 0 0 -10 10v0a10 10 0 0 0 10 10"/>
                    <g>
                        <path d="M253.25 138h62.5"/>
                    </g>
                    <path d="M315.75 138a10 10 0 0 0 10 -10v0a10 10 0 0 0 -10 -10"/>
                </g>
            </g>
            <path d="M392 118a10 10 0 0 0 10 -10v-19a10 10 0 0 1 10 -10"/>
        </g>
        <g>
            <path d="M412 79h0"/>
            <path d="M613 79h0"/>
            <path d="M412 79a10 10 0 0 0 10 -10v0a10 10 0 0 1 10 -10"/>
            <g>
                <path d="M432 59h161"/>
            </g>
            <path d="M593 59a10 10 0 0 1 10 10v0a10 10 0 0 0 10 10"/>
            <path d="M412 79h20"/>
            <g>
                <path d="M432 79h0"/>
                <path d="M593 79h0"/>
                <g>
                    <path d="M432 79h0"/>
                    <path d="M500.5 79h0"/>
                    <path d="M432 79h20"/>
                    <g class="terminal">
                        <path d="M452 79h0"/>
                        <path d="M480.5 79h0"/>
                        <rect width="28.5" height="22" x="452" y="68" rx="10" ry="10"/>
                        <text x="466.25" y="83">
                            e
                        </text>
                    </g>
                    <path d="M480.5 79h20"/>
                    <path d="M432 79a10 10 0 0 1 10 10v10a10 10 0 0 0 10 10"/>
                    <g class="terminal">
                        <path d="M452 109h0"/>
                        <path d="M480.5 109h0"/>
                        <rect width="28.5" height="22" x="452" y="98" rx="10" ry="10"/>
                        <text x="466.25" y="113">
                            E
                        </text>
                    </g>
                    <path d="M480.5 109a10 10 0 0 0 10 -10v-10a10 10 0 0 1 10 -10"/>
                </g>
                <path d="M500.5 79h10"/>
                <g>
                    <path d="M510.5 79h0"/>
                    <path d="M593 79h0"/>
                    <path d="M510.5 79h10"/>
                    <g class="non-terminal">
                        <path d="M520.5 79h0"/>
                        <path d="M583 79h0"/>
                        <rect width="62.5" height="22" x="520.5" y="68"/>
                        <text x="551.75" y="83">
                            digit
                        </text>
                    </g>
                    <path d="M583 79h10"/>
                    <path d="M520.5 79a10 10 0 0 0 -10 10v0a10 10 0 0 0 10 10"/>
                    <g>
                        <path d="M520.5 99h62.5"/>
                    </g>
                    <path d="M583 99a10 10 0 0 0 10 -10v0a10 10 0 0 0 -10 -10"/>
                </g>
            </g>
            <path d="M593 79h20"/>
        </g>
        <path d="M 613 79 h 20 m -10 -10 v 20 m 10 -20 v 20"/>
    </g>
</svg>